<svg version="1.2" xmlns="http://www.w3.org/2000/svg" viewBox="0 0 512 512" width="512" height="512">
	<title>fishSVG-svg</title>
	<style>
		.s0 { fill: #000000 } 
	</style>
	<g>
		<path fill-rule="evenodd" class="s0" d="m334.6 1.1c21.9 2.7 47.8 10 52.3 14.7 5.5 5.8 5.6 15 0.2 20.5-2.9 2.8-4.3 3.4-17 7.2-13.4 4-25.2 10.5-34 18.7-6.5 6.1-16.2 18.5-15.2 19.4 0.2 0.2 6 1.9 12.8 3.8 6.8 1.9 16 4.8 20.4 6.6 44.9 17.7 100.8 66.1 127.2 110 44.7 74.5 41.1 158.1-9.7 227-21.7 29.4-56.7 61.9-85.6 79.6-5.7 3.5-6.1 3.6-13.5 3-28.7-2-51.4-21.3-59-50.2-3-11.4-3.6-29.7-1.5-44.9 2-13.9 3.8-18.2 9.2-21.2 5.1-3 7.3-2.9 18 0.7 16.7 5.7 27.1 7.4 45.9 7.4 18.9 0.1 27.9-1.5 41.7-7.4 15.9-6.8 33.6-21.8 44.1-37.5l4.6-6.8-3.6-5.6c-10.1-15.8-26.1-33-39.5-42.4-7.9-5.6-20.8-11.8-29.8-14.4-5.1-1.4-10.1-1.8-23-1.8-19 0-19.9 0.2-47.3 10.1-9.8 3.5-26.7 9.1-37.5 12.3-109.7 32.8-204.1 37.9-269 14.5-16.1-5.8-20.3-8.3-23.2-13.6l-2.4-4.6 1.8-11.2c2-12.9 7.3-34.9 11.7-49.4 10.1-32.6 27.1-65.2 47.2-90.1 8.7-10.8 28.4-29.6 38.7-36.9 25-18 53.5-30.8 83-37.5l9.5-2.2 3.7-6.9c5.5-10.2 17.4-25.4 27-34.6 19-18.3 40.3-29.5 66.3-34.9 9.5-2 34.8-2.8 45.5-1.4zm-45.5 32.3c-18.5 4.8-33.4 13.4-47.6 27.5-13.8 13.8-14.9 12.7 12.9 13.5 13 0.4 26.2 1 29.2 1.4l5.5 0.7 4.5-8c2.5-4.4 6.1-10.2 7.9-12.8 3.6-5.3 15.3-17.5 21.6-22.6l4-3.2-14 0.5c-10.5 0.3-16.5 1.1-24 3zm-75 72.5c-3.9 0.6-12 2-18.2 3.2l-11.2 2.1 10.2 9.8c20.2 19.3 32.4 40.9 38.3 68 2.9 13.1 2.7 44.5-0.4 59.9-2.7 13.1-7.7 30.3-12.1 41-1.7 4.1-2.9 7.7-2.6 7.9 0.6 0.6 18.9-3.4 38-8.3 24-6.2 44.7-12.6 68.6-21.1 26.1-9.2 37.1-11.6 54.4-11.7 14.3 0 25.6 1.7 38.2 6 20.5 6.8 41.9 21.2 58.1 39l6.9 7.5-0.4-5.9c-3.1-49.3-22.4-90.5-60.3-128.3-18.2-18.2-47.1-40.1-64.7-48.9-22.2-11.1-51.7-18.4-87.3-21.5-7.9-0.7-48.3 0.3-55.5 1.3zm-72.3 22c-38.7 19.5-71.1 56-90.2 101.8-7.3 17.5-17.4 51.7-18.2 62-0.3 3.3-0.1 3.6 3.7 5 32.8 11.7 85.9 15.3 134.9 8.9l8.9-1.1 4.4-8.7c9.2-18.2 16.9-42.7 19.4-61.4 1.6-12.3 0.6-33.7-2-44.4-4.6-18.4-17.5-38.6-32.8-51.3-6-5.1-19-14.6-20.1-14.7-0.1 0-3.7 1.8-8 3.9zm282.4 300.7c-13.8 4.1-28.2 5.7-45.1 5-12.8-0.5-29.3-2.8-36.6-5.1-1.8-0.6-1.9 0-1.9 7.7 0.1 24.7 10 40.7 27.9 44.7 3.9 0.9 4.4 0.7 12.1-4.8 13.3-9.5 28.8-22.9 42.2-36.5 12.2-12.2 14.9-15.7 11-14.1-0.9 0.4-5.3 1.8-9.6 3.1z"/>
		<path class="s0" d="m114.4 179c-2.5 1.3-4.9 3.5-6.2 5.9-7.2 12.8 6.6 27 19.7 20.3 4.8-2.4 7.3-6.2 7.8-11.9 0.6-6.5-2-11.1-7.7-14.1-5.4-2.7-8.3-2.8-13.6-0.2z"/>
	</g>
</svg>