<?xml version="1.0" standalone="no"?>
<!DOCTYPE svg PUBLIC "-//W3C//DTD SVG 20010904//EN"
 "http://www.w3.org/TR/2001/REC-SVG-20010904/DTD/svg10.dtd">
<svg version="1.0" xmlns="http://www.w3.org/2000/svg"
 width="512.000000pt" height="512.000000pt" viewBox="0 0 512.000000 512.000000"
 preserveAspectRatio="xMidYMid meet">

<g transform="translate(0.000000,512.000000) scale(0.100000,-0.100000)"
fill="#000000" stroke="none">
<path d="M1780 5109 c-219 -27 -478 -100 -523 -147 -55 -58 -56 -150 -2 -205
29 -28 43 -34 170 -72 134 -40 252 -105 340 -187 65 -61 162 -185 152 -194 -2
-2 -60 -19 -128 -38 -68 -19 -160 -48 -204 -66 -449 -177 -1008 -661 -1272
-1100 -447 -745 -411 -1581 97 -2270 217 -294 567 -619 856 -796 57 -35 61
-36 135 -30 287 20 514 213 590 502 30 114 36 297 15 449 -20 139 -38 182 -92
212 -51 30 -73 29 -180 -7 -167 -57 -271 -74 -459 -74 -189 -1 -279 15 -417
74 -159 68 -336 218 -441 375 l-46 68 36 56 c101 158 261 330 395 424 79 56
208 118 298 144 51 14 101 18 230 18 190 0 199 -2 473 -101 98 -35 267 -91
375 -123 1097 -328 2041 -379 2690 -145 161 58 203 83 232 136 l24 46 -18 112
c-20 129 -73 349 -117 494 -101 326 -271 652 -472 901 -87 108 -284 296 -387
369 -250 180 -535 308 -830 375 l-95 22 -37 69 c-55 102 -174 254 -270 346
-190 183 -403 295 -663 349 -95 20 -348 28 -455 14z m455 -323 c185 -48 334
-134 476 -275 138 -138 149 -127 -129 -135 -130 -4 -262 -10 -292 -14 l-55 -7
-45 80 c-25 44 -61 102 -79 128 -36 53 -153 175 -216 226 l-40 32 140 -5 c105
-3 165 -11 240 -30z m750 -725 c39 -6 120 -20 182 -32 l112 -21 -102 -98
c-202 -193 -324 -409 -383 -680 -29 -131 -27 -445 4 -599 27 -131 77 -303 121
-410 17 -41 29 -77 26 -79 -6 -6 -189 34 -380 83 -240 62 -447 126 -686 211
-261 92 -371 116 -544 117 -143 0 -256 -17 -382 -60 -205 -68 -419 -212 -581
-390 l-69 -75 4 59 c31 493 224 905 603 1283 182 182 471 401 647 489 222 111
517 184 873 215 79 7 483 -3 555 -13z m723 -220 c387 -195 711 -560 902 -1018
73 -175 174 -517 182 -620 3 -33 1 -36 -37 -50 -328 -117 -859 -153 -1349 -89
l-89 11 -44 87 c-92 182 -169 427 -194 614 -16 123 -6 337 20 444 46 184 175
386 328 513 60 51 190 146 201 147 1 0 37 -18 80 -39z m-2824 -3007 c138 -41
282 -57 451 -50 128 5 293 28 366 51 18 6 19 0 19 -77 -1 -247 -100 -407 -279
-447 -39 -9 -44 -7 -121 48 -133 95 -288 229 -422 365 -122 122 -149 157 -110
141 9 -4 53 -18 96 -31z"/>
<path d="M3934 3170 c-25 -13 -49 -35 -62 -59 -72 -128 66 -270 197 -203 48
24 73 62 78 119 6 65 -20 111 -77 141 -54 27 -83 28 -136 2z"/>
</g>
</svg>
